<svg id="Capa_1" enable-background="new 0 0 511.998 511.998" height="512" viewBox="0 0 511.998 511.998" width="512" xmlns="http://www.w3.org/2000/svg"><g><g><g><g><path d="m451.77 73.776c0 15.364-9.071 28.608-22.148 34.67-13.078-6.057-22.148-19.307-22.148-34.67 0-12.981 6.476-24.453 16.373-31.353 3.475-2.422 8.076-2.422 11.55.001 9.897 6.901 16.373 18.37 16.373 31.352z" fill="#fddd45"/><path d="m429.623 108.449c-9.383-4.349-16.716-12.403-20.096-22.288 1.457.933 2.984 1.782 4.568 2.517 13.074-6.06 22.14-19.311 22.147-34.677 0-4.299-.707-8.415-2.008-12.275.403.205.792.438 1.167.7 9.892 6.894 16.37 18.363 16.37 31.346-.001 15.373-9.073 28.617-22.148 34.677z" fill="#f8c52d"/></g><g><path d="m467.591 89.597c-15.364 0-28.608 9.071-34.67 22.148 6.057 13.078 19.307 22.148 34.67 22.148 12.981 0 24.453-6.476 31.353-16.373 2.422-3.475 2.422-8.076-.001-11.55-6.901-9.897-18.37-16.373-31.352-16.373z" fill="#fddd45"/><path d="m467.595 133.891c-14.545.007-27.188-8.125-33.63-20.082 5.388 2.899 11.554 4.554 18.102 4.554 12.975.007 24.452-6.477 31.346-16.37 1.711-2.447 2.22-5.473 1.506-8.252 5.621 2.864 10.437 7.085 14.022 12.226 2.425 3.472 2.425 8.082 0 11.554-6.894 9.893-18.371 16.377-31.346 16.37z" fill="#f8c52d"/></g></g><g><g><path d="m399.23 126.316c0 15.364-9.071 28.608-22.148 34.67-13.078-6.057-22.148-19.307-22.148-34.67 0-12.981 6.476-24.453 16.373-31.353 3.475-2.422 8.076-2.422 11.55.001 9.897 6.901 16.373 18.37 16.373 31.352z" fill="#fddd45"/><path d="m377.083 160.989c-9.383-4.349-16.716-12.403-20.096-22.288 1.457.933 2.984 1.782 4.568 2.517 13.074-6.06 22.14-19.311 22.147-34.676 0-4.299-.707-8.415-2.008-12.275.403.205.792.438 1.167.7 9.892 6.894 16.37 18.363 16.37 31.346-.001 15.372-9.073 28.616-22.148 34.676z" fill="#f8c52d"/></g><g><path d="m415.051 142.137c-15.364 0-28.608 9.071-34.67 22.148 6.057 13.078 19.307 22.148 34.67 22.148 12.981 0 24.453-6.476 31.353-16.373 2.422-3.475 2.422-8.076-.001-11.55-6.901-9.897-18.37-16.373-31.352-16.373z" fill="#fddd45"/><path d="m415.055 186.431c-14.545.007-27.188-8.125-33.63-20.082 5.388 2.899 11.554 4.554 18.102 4.554 12.975.007 24.452-6.477 31.346-16.37 1.711-2.447 2.22-5.473 1.506-8.252 5.621 2.864 10.437 7.085 14.022 12.226 2.425 3.472 2.425 8.082 0 11.554-6.894 9.892-18.371 16.377-31.346 16.37z" fill="#f8c52d"/></g></g></g><g><g><g><path d="m238.676 203.114c-32.989-29.924-83.804-91.716-87.512-190.65-.154-4.101-4.799-6.375-8.155-4.014-20.696 14.558-72.193 59.432-35.82 125.684l-33.726-9.971c-2.793-.826-5.717.808-6.465 3.622-3.927 14.765-11.338 58.878 27.324 93.75l-26.423-.175c-4.095-.027-6.616 4.5-4.403 7.945 12.303 19.145 51.793 65.732 143.156 62.032 19.569-.793 36.974-12.677 44.68-30.682 8.523-19.914 3.388-42.988-12.656-57.541z" fill="#31a7fb"/><path d="m255.404 240.788c0 6.684-1.324 13.44-4.077 19.866-6.829 15.975-21.314 27.139-38.158 29.995 6.032-5.008 10.926-11.454 14.144-18.955 2.752-6.415 4.077-13.171 4.077-19.855 0-14.04-5.867-27.822-16.73-37.682-32.995-29.922-83.808-91.713-87.512-190.647-.021-.631-.155-1.211-.372-1.738 6.042-5.753 11.837-10.222 16.234-13.316 3.352-2.369 7.998-.093 8.153 4.015 3.714 98.935 54.527 160.725 87.512 190.647 10.873 9.848 16.729 23.619 16.729 37.67z" fill="#1c96f9"/></g><path d="m335.992 162.573c-1.062-27.753-24.162-50.077-51.934-50.247-22.628-.139-41.939 14.096-49.362 34.108-2.644 7.127-7.981 12.978-14.992 15.916-59.761 25.046-101.745 84.087-101.745 152.941 0 25.728-4.797 51.228-14.185 75.183-8.595 21.932-21.131 47.991-37.703 67.69-3.974 4.724-3.303 11.769 1.568 15.561 15.586 12.131 51.454 34.019 103.938 30.364 6.868-.478 11.596-7.082 9.745-13.713-5.93-21.242-16.31-67.221-11.242-114.682 1.737-16.266 15.357-28.66 31.715-28.66 45.251 0 81.934-36.683 81.934-81.934v-25.885c0-11.456 7.274-21.527 18.028-25.476 20.607-7.567 35.131-27.734 34.235-51.166z" fill="#b5dbfd"/><path d="m301.757 213.742c-10.75 3.942-18.024 14.02-18.024 25.473v25.887c0 22.628-9.167 43.104-24.004 57.931-14.827 14.837-35.303 24.004-57.931 24.004-16.358 0-29.985 12.385-31.723 28.66-5.06 47.46 5.318 93.44 11.247 114.682 1.852 6.622-2.876 13.233-9.747 13.709-31.257 2.173-56.617-4.708-75.313-13.192 13.378 2.98 28.619 4.47 45.608 3.29 6.86-.486 11.588-7.087 9.736-13.72-5.929-21.242-16.306-67.222-11.236-114.682 1.738-16.265 15.354-28.66 31.712-28.66 22.628 0 43.114-9.167 57.941-23.994s23.994-35.313 23.994-57.941v-25.877c0-11.464 7.274-21.531 18.024-25.484 20.61-7.563 35.137-27.729 34.237-51.164-.631-16.565-9.115-31.205-21.769-40.331 27.563.414 50.43 22.638 51.485 50.243.89 23.426-13.626 43.592-34.237 51.166z" fill="#8dcafc"/><g><path d="m198.796 187.761c-42.357-13.771-114.036-49.302-157.974-138.022-1.821-3.677-6.99-3.848-9.084-.318-12.91 21.762-41.485 83.804 18.85 129.322l-34.85 4.731c-2.886.392-4.883 3.08-4.412 5.954 2.471 15.077 13.794 58.352 63.354 74.31l-24.172 10.672c-3.746 1.654-4.19 6.817-.759 9.052 19.07 12.419 74.187 38.724 156.004-2.103 17.524-8.745 28.528-26.72 28.176-46.302-.39-21.658-14.533-40.599-35.133-47.296z" fill="#8dcafc"/><path d="m233.925 235.056c.352 19.586-10.647 37.558-28.174 46.301-2.969 1.48-5.898 2.866-8.784 4.17 8.422-9.364 13.244-21.707 13.006-34.754-.197-10.823-3.828-20.983-9.995-29.26-6.156-8.277-14.847-14.692-25.142-18.034-41.18-13.389-110.047-47.336-154.217-130.709 3.58-9.747 7.853-17.838 11.123-23.352 2.09-3.528 7.263-3.352 9.084.321 43.932 88.722 115.613 124.253 157.973 138.024 10.295 3.352 18.986 9.757 25.142 18.034 6.156 8.286 9.798 18.426 9.984 29.259z" fill="#64b9fc"/></g><g><path d="m346.854 197.021h-14.952c-9.259 0-17.144-7.2-17.473-16.452-.345-9.714 7.427-17.698 17.064-17.698 8.848 0 25.068 11.445 20.356 30.326-.565 2.269-2.658 3.824-4.995 3.824z" fill="#d68a5a"/></g></g><g><path d="m114.516 132.545c-31.295-57.005 7.219-98.829 29.348-115.446 1.207 23.296 5.07 45.982 11.5 67.497 1.187 3.97 5.365 6.229 9.333 5.038 3.969-1.186 6.225-5.364 5.039-9.333-6.468-21.642-10.195-44.56-11.078-68.119-.174-4.638-2.866-8.8-7.024-10.86-4.172-2.069-9.131-1.687-12.94.993-10.525 7.403-29.935 23.247-41.672 46.174-9.816 19.173-12.443 39.089-7.914 59.491-16.31-18.104-30.226-38.674-41.565-61.569-2.06-4.159-6.221-6.853-10.859-7.027-4.643-.192-9.02 2.204-11.397 6.211-6.564 11.067-17.774 33.475-19.081 59.198-1.347 26.496 7.7 49.556 26.927 68.751l-18.404 2.498c-3.423.464-6.438 2.249-8.491 5.024-2.05 2.771-2.872 6.172-2.314 9.574 1.31 7.991 5.012 23.766 15.089 39.633 9.219 14.517 21.503 25.79 36.646 33.664l-8.182 3.611c-4.262 1.882-7.143 5.938-7.519 10.583-.375 4.631 1.808 9.082 5.697 11.615 11.318 7.371 33.454 18.694 64.869 20.78-.043 1.589-.067 3.18-.067 4.763 0 24.93-4.599 49.304-13.668 72.447-10.684 27.262-23.291 49.945-36.459 65.598-3.22 3.827-4.767 8.86-4.246 13.811.525 4.98 2.992 9.418 6.946 12.496 16.068 12.508 49.102 32.356 96.84 32.356 3.974 0 8.05-.138 12.227-.429 5.554-.387 10.576-3.21 13.777-7.746 3.182-4.51 4.155-10.146 2.67-15.465-6.2-22.212-15.875-66.282-11.008-111.869 1.336-12.517 11.765-21.956 24.258-21.956 20.75 0 40.974-7.271 56.944-20.472 3.193-2.639 3.642-7.366 1.002-10.559-2.638-3.191-7.365-3.642-10.559-1.002-13.288 10.983-30.117 17.032-47.387 17.032-20.18 0-37.021 15.203-39.173 35.364-5.133 48.072 4.986 94.248 11.476 117.494.366 1.313-.143 2.307-.479 2.783-.348.492-1.142 1.332-2.563 1.432-3.817.266-7.534.391-11.164.391-15.774-.001-29.753-2.383-41.864-5.949 9.3-23.458 16.519-58.754 16.839-60.333.824-4.06-1.799-8.018-5.858-8.841-4.058-.826-8.018 1.799-8.842 5.857-.076.376-7.398 36.175-16.294 58.325-13.99-5.782-24.611-12.79-31.627-18.251-.907-.706-1.176-1.604-1.243-2.231-.057-.539-.027-1.592.807-2.583 14.41-17.128 27.514-40.606 38.947-69.781 9.756-24.894 14.702-51.109 14.702-77.92 0-1.495.025-2.998.067-4.498 23.693-.717 51.728-6.83 83.576-22.722 20.038-9.999 32.727-30.861 32.326-53.147-.446-24.78-16.646-46.6-40.312-54.294-.116-.038-.232-.08-.348-.118 6.983-4.307 14.286-8.081 21.834-11.245 8.746-3.664 15.717-11.035 19.125-20.224 6.494-17.505 23.352-29.217 42.01-29.217.091 0 .183 0 .275.001 21.175.13 39.391 15.653 43.595 35.851-5.237.824-10.038 3.308-13.798 7.205-4.672 4.842-7.114 11.218-6.875 17.953.232 6.512 2.99 12.328 7.332 16.569-4.36 4.065-9.489 7.236-15.095 9.294-13.722 5.039-22.942 18.106-22.942 32.516v25.885c0 10.929-2.33 21.478-6.925 31.354-1.748 3.755-.12 8.217 3.636 9.964 1.024.477 2.1.702 3.159.702 2.827 0 5.534-1.606 6.805-4.338 5.524-11.872 8.326-24.55 8.326-37.682v-25.885c0-8.146 5.27-15.555 13.112-18.435 9.275-3.405 17.569-9.084 24.136-16.489 1.12.149 2.263.231 3.426.231h1.485c.355.73.828 1.416 1.435 2.022 1.464 1.465 3.384 2.197 5.304 2.197 1.919 0 3.838-.732 5.303-2.196l2.05-2.049c5.561-.268 10.302-4.086 11.648-9.483.232-.932.413-1.86.568-2.787.186-.153.368-.316.542-.49l17.346-17.345c8.454 12.072 22.436 19.542 37.469 19.542 14.936 0 28.957-7.32 37.506-19.583 4.197-6.021 4.196-14.11-.001-20.128-8.125-11.654-21.192-18.831-35.287-19.517l12.853-12.853c8.455 12.073 22.437 19.542 37.469 19.542 14.936 0 28.957-7.321 37.505-19.584 4.197-6.021 4.197-14.109-.001-20.129-8.551-12.263-22.571-19.584-37.504-19.584-3.157 0-6.266.335-9.289.968.633-3.023.968-6.132.968-9.289 0-14.934-7.321-28.954-19.584-37.504-6.02-4.196-14.108-4.197-20.129-.001-12.263 8.548-19.583 22.569-19.583 37.505 0 15.032 7.469 29.014 19.542 37.469l-12.853 12.853c-.686-14.095-7.863-27.161-19.516-35.284-6.02-4.2-14.11-4.2-20.129-.002-12.263 8.549-19.583 22.569-19.583 37.505 0 15.033 7.469 29.014 19.542 37.468l-9.691 9.691c-.99-2.118-2.227-4.143-3.714-6.046-2.825-3.616-6.464-6.636-10.345-8.75-1.389-13.997-7.682-27.012-17.97-36.964-11.164-10.797-25.778-16.795-41.151-16.889-.124-.001-.244-.001-.368-.001-24.901 0-47.406 15.635-56.073 39-1.97 5.31-5.928 9.54-10.859 11.606-2.638 1.105-5.242 2.291-7.823 3.528-10.608-14.438-19.715-29.917-27.056-46.088-1.712-3.772-6.158-5.445-9.929-3.729-3.771 1.712-5.441 6.157-3.729 9.929 7.474 16.465 16.67 32.253 27.348 47.027-4.204 2.488-8.303 5.155-12.286 7.992-8.734-3.575-17.326-7.636-25.684-12.167-3.642-1.976-8.193-.624-10.168 3.018-1.974 3.642-.623 8.194 3.019 10.168 14.778 8.013 30.249 14.67 45.983 19.785 17.584 5.717 29.621 21.911 29.952 40.298.297 16.537-9.134 32.024-24.026 39.456-73.216 36.537-123.507 17.395-144.829 4.841l17.815-7.865c4.878 1.089 14.048 2.744 24.759 2.744 7.774 0 16.357-.873 24.681-3.469 3.954-1.233 6.16-5.439 4.926-9.394s-5.439-6.158-9.393-4.927c-16.937 5.286-36.333 1.617-41.876.368-.344-.077-.686-.121-1.027-.15-.161-.065-.314-.143-.481-.197-42.719-13.756-54.575-49.094-57.83-66.021l29.608-4.019c7.421 4.765 26.687 15.344 55.507 18.52.279.03.556.046.831.046 3.774 0 7.023-2.842 7.446-6.68.454-4.117-2.517-7.822-6.634-8.276-27.033-2.979-44.693-13.383-49.461-16.501-.268-.176-.546-.325-.827-.462-.168-.153-.329-.312-.513-.451-51.919-39.162-32.42-91.565-19.047-115.792 20.45 39.868 48.437 72.964 83.234 98.415 3.343 2.444 8.035 1.717 10.481-1.626 2.445-3.344 1.717-8.036-1.626-10.481-4.681-3.424-9.218-7.009-13.637-10.724zm261.08-31.429c.451-.314.967-.472 1.484-.472.518 0 1.035.157 1.487.473 8.242 5.746 13.163 15.167 13.163 25.199 0 10.713-5.649 20.636-14.649 26.173-9-5.533-14.647-15.456-14.647-26.173 0-10.034 4.92-19.454 13.162-25.2zm-53.672 79.186c-.093-2.63.857-5.117 2.678-7.004 1.822-1.888 4.269-2.927 6.891-2.927 2.154 0 6.903 2 10.256 6.292 2.899 3.712 3.974 8.03 3.205 12.858h-13.052c-5.32.001-9.797-4.135-9.978-9.219zm118.328-17.5c.629.901.629 2.067 0 2.97-5.746 8.241-15.167 13.161-25.201 13.161-10.717 0-20.639-5.647-26.172-14.646 5.536-9 15.459-14.649 26.172-14.649 10.033-.001 19.453 4.92 25.201 13.164zm-12.117-114.226c.452-.315.968-.473 1.486-.473s1.035.158 1.486.473c8.243 5.746 13.164 15.167 13.164 25.199 0 10.713-5.649 20.636-14.649 26.173-9-5.533-14.647-15.457-14.647-26.173-.001-10.033 4.919-19.454 13.16-25.199zm64.656 64.656c-5.745 8.242-15.166 13.162-25.2 13.162-10.716 0-20.639-5.648-26.173-14.647 5.537-9 15.46-14.649 26.173-14.649 10.032 0 19.453 4.921 25.2 13.164.629.901.629 2.067 0 2.97z"/><path d="m293.113 166.579v-3.078c0-4.143-3.358-7.5-7.5-7.5s-7.5 3.357-7.5 7.5v3.078c0 4.143 3.358 7.5 7.5 7.5s7.5-3.357 7.5-7.5z"/></g></g></g></svg>